<svg xmlns="http://www.w3.org/2000/svg" width="640" height="360" viewBox="0 0 640 360">
    <path fill="#CCC" d="M0 0h640v360H0z"/>
    <path fill="#FFF" d="M260 217.38c0 6.693-3.703 12.62-10.12 12.62h-76.76c-6.417 0-13.12-5.927-13.12-12.62v-75.76c0-6.693 6.703-11.62 13.12-11.62h76.76c6.417 0 10.12 4.927 10.12 11.62v75.76zM480 217.38c0 6.693-3.703 12.62-10.12 12.62h-76.76c-6.417 0-13.12-5.927-13.12-12.62v-75.76c0-6.693 6.703-11.62 13.12-11.62h76.76c6.417 0 10.12 4.927 10.12 11.62v75.76zM360 180l-27-20v10h-53v20h53v10z"/>
</svg>
